<?xml version="1.0" standalone="no"?>
<!DOCTYPE svg PUBLIC "-//W3C//DTD SVG 20010904//EN"
 "http://www.w3.org/TR/2001/REC-SVG-20010904/DTD/svg10.dtd">
<svg version="1.0" xmlns="http://www.w3.org/2000/svg"
 width="512.000000pt" height="512.000000pt" viewBox="0 0 512.000000 512.000000"
 preserveAspectRatio="xMidYMid meet">

<g transform="translate(0.000000,512.000000) scale(0.100000,-0.100000)"
fill="#000000" stroke="none">
<path d="M3240 5019 c-306 -35 -609 -161 -845 -352 -27 -22 -314 -304 -638
-626 l-587 -586 0 211 c0 197 -1 213 -20 237 -30 38 -80 52 -123 33 -66 -27
-67 -35 -67 -416 0 -290 2 -346 16 -371 28 -56 50 -59 409 -59 349 0 375 3
409 51 21 30 21 88 0 118 -31 44 -69 51 -276 51 l-193 0 535 536 c294 295 572
568 616 608 269 238 582 357 939 357 162 0 289 -20 432 -67 491 -160 861 -588
947 -1096 22 -126 22 -340 0 -466 -44 -261 -154 -491 -337 -704 -41 -48 -77
-98 -81 -112 -9 -37 17 -92 53 -110 66 -35 109 -13 208 106 284 337 423 763
385 1175 -15 161 -33 247 -83 398 -110 330 -333 622 -629 820 -312 209 -705
306 -1070 264z"/>
<path d="M3280 4579 c-254 -31 -479 -137 -665 -312 -231 -217 -352 -475 -371
-788 -43 -692 543 -1278 1235 -1235 313 19 571 140 788 371 531 564 377 1475
-310 1836 -207 108 -457 156 -677 128z m395 -243 c323 -96 563 -336 661 -661
25 -82 28 -105 28 -255 1 -142 -2 -177 -22 -249 -174 -638 -912 -919 -1456
-556 -408 271 -547 793 -329 1230 120 240 354 430 609 494 118 30 117 30 274
26 122 -2 159 -7 235 -29z"/>
<path d="M3358 4143 c-37 -23 -48 -53 -48 -127 l0 -63 -94 -6 c-113 -6 -165
-27 -235 -92 -69 -64 -95 -128 -96 -230 0 -68 4 -89 28 -137 30 -62 83 -115
149 -150 41 -22 55 -23 318 -28 288 -5 303 -8 334 -52 21 -29 20 -87 0 -117
-32 -45 -67 -51 -305 -51 -180 0 -227 3 -254 16 -36 17 -65 65 -65 107 0 34
-34 73 -74 87 -27 9 -42 8 -69 -4 -131 -54 -54 -303 118 -385 38 -18 73 -25
148 -29 l97 -5 0 -74 c0 -69 2 -77 29 -104 21 -21 39 -29 65 -29 81 0 116 43
116 143 l0 65 93 4 c108 5 171 29 230 86 167 161 122 428 -88 524 -47 22 -65
23 -320 28 -297 6 -307 7 -331 67 -19 43 -5 93 33 123 24 19 40 20 280 20
l255 0 29 -29 c17 -18 29 -40 29 -56 0 -66 52 -125 112 -125 38 0 85 35 98 74
20 62 -13 171 -76 246 -59 69 -163 110 -280 110 l-62 0 -4 75 c-3 64 -7 79
-29 101 -33 33 -94 41 -131 17z"/>
<path d="M584 2861 c-38 -23 -153 -159 -221 -261 -485 -726 -299 -1711 420
-2217 465 -328 1096 -381 1607 -137 254 122 287 150 963 823 l597 595 0 -210
c0 -197 1 -213 20 -237 30 -38 80 -52 123 -33 66 27 67 35 67 416 0 380 -1
389 -65 416 -50 20 -670 21 -719 0 -43 -18 -66 -51 -66 -96 0 -20 7 -46 16
-59 31 -44 69 -51 276 -51 l193 0 -535 -536 c-294 -295 -573 -570 -620 -611
-266 -235 -579 -354 -935 -354 -368 0 -698 132 -962 384 -119 115 -208 232
-279 370 -107 208 -155 407 -155 642 0 355 115 659 354 937 41 48 77 98 81
112 9 37 -17 92 -53 110 -40 21 -69 20 -107 -3z"/>
<path d="M1545 2869 c-274 -40 -502 -160 -696 -368 -333 -354 -409 -868 -195
-1306 246 -502 805 -762 1342 -625 209 54 369 145 530 305 146 145 231 278
289 449 189 562 -57 1165 -585 1431 -205 103 -463 146 -685 114z m383 -229
c467 -110 789 -568 732 -1040 -51 -413 -355 -749 -755 -831 -494 -102 -976
188 -1121 676 -37 127 -44 319 -16 455 95 461 515 788 982 764 52 -3 132 -14
178 -24z"/>
<path d="M1654 2439 c-36 -18 -54 -62 -54 -133 l0 -66 -170 0 c-194 0 -222 -7
-246 -67 -12 -27 -13 -42 -4 -68 18 -55 43 -69 129 -75 l76 -5 3 -317 2 -318
-61 0 c-76 0 -122 -21 -143 -65 -20 -41 -20 -49 0 -90 26 -56 60 -65 247 -65
l165 0 4 -74 c3 -62 7 -79 27 -100 33 -35 85 -44 126 -21 42 22 55 52 55 129
l0 63 88 6 c114 7 171 28 236 88 115 105 138 273 56 402 l-28 45 23 34 c66 97
71 222 14 329 -60 112 -143 159 -291 167 l-98 5 0 74 c0 69 -2 77 -29 104 -31
31 -84 38 -127 18z m311 -425 c31 -14 65 -64 65 -94 0 -7 -7 -27 -16 -45 -26
-56 -60 -65 -248 -65 l-166 0 0 110 0 110 166 0 c130 0 173 -3 199 -16z m6
-430 c42 -21 64 -75 49 -120 -6 -18 -23 -43 -37 -54 -24 -18 -40 -20 -204 -20
l-179 0 0 105 0 105 170 0 c136 0 177 -3 201 -16z"/>
</g>
</svg>
